<svg xmlns="http://www.w3.org/2000/svg" version="1.1" xmlns:xlink="http://www.w3.org/1999/xlink" xmlns:svgjs="http://svgjs.dev/svgjs" width="100%" height="100%" viewBox="0 0 1000 600"><rect width="1000" height="600" x="0" y="0" fill="#00a9ff"/><g><rect width="333.3333333333333" height="333.3333333333333" rx="13.333333333333334" ry="13.333333333333334" y="311.11109240931273" fill="#89cff3" transform="matrix(0.4326922975348301,0,0,0.43269229753482996,0,93.26923227028021)" x="288.8888854980468"/><path d="M352.26687566114924 552.777764233972L343.9037806762499 552.777764233972Q341.10616171332975 552.777764233972 339.49901890484375 551.2896690409294Q337.89187609635775 549.771811944026 337.2668761152799 547.0039548849667L337.2668761152799 547.0039548849667L309.6180674285484 409.41467333624814Q309.4097341015224 408.5515781242834 309.4097341015224 407.9265781432055Q309.4097341015224 407.27181625826677 309.4097341015224 407.0634829312408L309.4097341015224 407.0634829312408Q309.4097341015224 405.3372925073114 310.6894959675391 404.05753064129476Q311.96925783355573 402.7777687752781 313.6954482574851 402.7777687752781L313.6954482574851 402.7777687752781L324.82640030144375 402.7777687752781Q329.3204477844324 402.7777687752781 329.97520966937117 406.40872104630205L329.97520966937117 406.40872104630205L351.8204471032365 517.003955793228L374.9752083069793 441.1408628519163Q375.62997019191806 439.2063391009609 377.23711300040407 437.5991962924749Q378.84425580889007 435.9920534839889 381.82044619497526 435.9920534839889L381.82044619497526 435.9920534839889L389.76687452582274 435.9920534839889Q392.98116014279475 435.9920534839889 394.4692553358373 437.5991962924749Q395.9871124327408 439.2063391009609 396.4037790867927 441.1408628519163L396.4037790867927 441.1408628519163L419.7668736175615 517.003955793228L441.40377772440087 406.40872104630205Q442.0585396093396 402.7777687752781 446.76092041935425 402.7777687752781L446.76092041935425 402.7777687752781L457.89187246331284 402.7777687752781Q459.6180628872423 402.7777687752781 460.89782475325893 404.05753064129476Q462.17758661927553 405.3372925073114 462.17758661927553 407.0634829312408L462.17758661927553 407.0634829312408Q462.17758661927553 407.27181625826677 462.088300907693 407.9265781432055Q461.96925329224956 408.5515781242834 461.96925329224956 409.41467333624814L461.96925329224956 409.41467333624814L434.3204446055181 547.0039548849667Q433.6954446244402 549.771811944026 432.0883018159542 551.2896690409294Q430.4811590074682 552.777764233972 427.6835400445481 552.777764233972L427.6835400445481 552.777764233972L419.32044505964876 552.777764233972Q416.3442546735635 552.777764233972 414.61806424963413 551.2896690409294Q412.8918738257047 549.771811944026 412.2668738446268 547.4206215390186L412.2668738446268 547.4206215390186L385.689493696886 465.78371924870174L359.32044687617116 547.4206215390186Q358.4871135680673 549.771811944026 356.87997075958134 551.2896690409294Q355.2728279510953 552.777764233972 352.26687566114924 552.777764233972L352.26687566114924 552.777764233972ZM506.55258527580577 552.777764233972L495.18353800096037 552.777764233972Q492.832347595953 552.777764233972 491.5525857299364 551.378954752512Q490.27282386391977 549.9801452710519 490.27282386391977 547.8372881930705L490.27282386391977 547.8372881930705L490.27282386391977 407.9265781432055Q490.27282386391977 405.5753877381982 491.5525857299364 404.17657825673814Q492.832347595953 402.7777687752781 495.18353800096037 402.7777687752781L495.18353800096037 402.7777687752781L549.6180601624585 402.7777687752781Q565.4811549202927 402.7777687752781 577.1478212337468 407.9265781432055Q588.8442494510614 413.07538751113293 595.2728206850054 423.25395863154426Q601.7013919189494 433.4325297519556 601.7013919189494 448.64086262485097L601.7013919189494 448.64086262485097Q601.7013919189494 463.84919549774634 595.2728206850054 473.9087190027143Q588.8442494510614 483.9980044115431 577.1478212337468 489.1468137794705Q565.4811549202927 494.2658612435371 549.6180601624585 494.2658612435371L549.6180601624585 494.2658612435371L511.7013946437332 494.2658612435371L511.7013946437332 547.8372881930705Q511.7013946437332 549.9801452710519 510.30258516227315 551.378954752512Q508.9037756808131 552.777764233972 506.55258527580577 552.777764233972L506.55258527580577 552.777764233972ZM511.46329941284637 420.78372061109354L511.46329941284637 476.2896713115825L548.5466316234679 476.2896713115825Q564.4097263813019 476.2896713115825 572.3263928082886 469.2063381926997Q580.2728211391361 462.1230050738169 580.2728211391361 448.64086262485097L580.2728211391361 448.64086262485097Q580.2728211391361 435.33729159905016 572.5347261353147 428.07538705700233Q564.8263930353539 420.78372061109354 548.5466316234679 420.78372061109354L548.5466316234679 420.78372061109354L511.46329941284637 420.78372061109354Z " fill="white" transform="matrix(0.4326922975348301,0,0,0.43269229753482996,0,93.26923227028021)"/><path d="M747.2222288989233 550.6944350040383L739.0914418858187 550.6944350040383Q736.3715344864172 550.6944350040383 734.8090344910163 549.2476757490374Q733.2465344956155 547.7719813089366 732.6388956085151 545.0810090946352L732.6388956085151 545.0810090946352L705.7581086506001 411.3136483772601Q705.5555623549 410.47452800935963 705.5555623549 409.8668891222593Q705.5555623549 409.23031505005895 705.5555623549 409.0277687543588L705.5555623549 409.0277687543588Q705.5555623549 407.34952801855786 706.7997753142006 406.1053150592572Q708.0439882735013 404.8611020999565 709.7222290093022 404.8611020999565L709.7222290093022 404.8611020999565L720.5439882367083 404.8611020999565Q724.9132011868107 404.8611020999565 725.5497752590112 408.39119468215847L725.5497752590112 408.39119468215847L746.7882011224231 515.9143425138188L769.2997751302356 442.1585556938774Q769.936349202436 440.2777686623764 771.4988491978369 438.7152686669755Q773.0613491932378 437.15276867157456 775.9548677032394 437.15276867157456L775.9548677032394 437.15276867157456L783.6805621249438 437.15276867157456Q786.8055621157455 437.15276867157456 788.2523213707462 438.7152686669755Q789.7280158108471 440.2777686623764 790.1331084022473 442.1585556938774L790.1331084022473 442.1585556938774L812.84722870576 515.9143425138188L833.8831082734719 408.39119468215847Q834.5196823456722 404.8611020999565 839.0914415914748 404.8611020999565L839.0914415914748 404.8611020999565L849.9132008188809 404.8611020999565Q851.5914415546819 404.8611020999565 852.8356545139825 406.1053150592572Q854.0798674732832 407.34952801855786 854.0798674732832 409.0277687543588L854.0798674732832 409.0277687543588Q854.0798674732832 409.23031505005895 853.9930619179831 409.8668891222593Q853.877321177583 410.47452800935963 853.877321177583 411.3136483772601L853.877321177583 411.3136483772601L826.996534219668 545.0810090946352Q826.3888953325677 547.7719813089366 824.8263953371668 549.2476757490374Q823.2638953417659 550.6944350040383 820.5439879423644 550.6944350040383L820.5439879423644 550.6944350040383L812.4132009292598 550.6944350040383Q809.5196824192582 550.6944350040383 807.8414416834572 549.2476757490374Q806.1632009476563 547.7719813089366 805.555562060556 545.4861016860353L805.555562060556 545.4861016860353L779.7164417662415 466.11688895669084L754.0798677676271 545.4861016860353Q753.2696825848267 547.7719813089366 751.7071825894258 549.2476757490374Q750.1446825940249 550.6944350040383 747.2222288989233 550.6944350040383L747.2222288989233 550.6944350040383ZM922.0196820881213 552.7777683312395L922.0196820881213 552.7777683312395Q900.3472284482091 552.7777683312395 887.644682189302 539.554388740532Q874.9132007452948 526.3310091498246 873.6689877859942 503.41434255061176L873.6689877859942 503.41434255061176Q873.4664414902941 500.6944351512102 873.4664414902941 496.41202775640784Q873.4664414902941 492.15855554670543 873.6689877859942 489.4386481473039L873.6689877859942 489.4386481473039Q874.5081081538946 474.6527685611956 880.555561839798 463.5127222976894Q886.6030155257014 452.37267603418314 897.1064877170073 446.32522234827974Q907.6388950934132 440.2777686623764 921.7882006073212 440.2777686623764L921.7882006073212 440.2777686623764Q937.6446820421301 440.2777686623764 948.350700529136 446.9328612353801Q959.085654201242 453.6168889934838 964.7280152957452 465.9143426609907Q970.3414412051484 478.1828611433976 970.3414412051484 494.64698146530685L970.3414412051484 494.64698146530685L970.3414412051484 498.20600923260884Q970.3414412051484 500.4918888555101 968.9814875054476 501.7361018148108Q967.6215338057468 502.98031477411155 965.5382004785457 502.98031477411155L965.5382004785457 502.98031477411155L893.4606543944052 502.98031477411155Q893.4606543944052 503.1828610698116 893.4606543944052 503.81943514201197Q893.4606543944052 504.4560092142123 893.4606543944052 504.8611018056125L893.4606543944052 504.8611018056125Q893.8946821709055 513.3969814101174 897.2222284574074 520.8043887957215Q900.5497747439092 528.1828609962256 906.9155154659128 532.7835554271282Q913.2523210028163 537.3553146729308 921.7882006073212 537.3553146729308L921.7882006073212 537.3553146729308Q929.3113487333253 537.3553146729308 934.2882005705281 535.0694350500295Q939.293987592831 532.7835554271282 942.4189875836327 529.9768424724266Q945.5439875744345 527.141194332625 946.5856542380351 525.4918887819241L946.5856542380351 525.4918887819241Q948.4664412695361 522.9745276782228 949.5081079331367 522.4536943464225Q950.5497745967373 521.9328610146222 952.8356542196385 521.9328610146222L952.8356542196385 521.9328610146222L963.0497745599442 521.9328610146222Q964.9305615914453 521.9328610146222 966.2905152911461 523.0902684186228Q967.6215338057468 524.2476758226235 967.4189875100468 526.3310091498246L967.4189875100468 526.3310091498246Q967.2164412143467 529.4560091406263 964.0914412235448 533.9120276460288Q960.9664412327431 538.3969813365313 955.2372745829399 542.7661942866339Q949.5081079331367 547.1643424218363 941.0590338839319 549.9710553765378Q932.6388950198273 552.7777683312395 922.0196820881213 552.7777683312395ZM893.4606543944052 487.9918888923031L893.4606543944052 488.59952777940345L950.5497745967373 488.59952777940345L950.5497745967373 487.9918888923031Q950.5497745967373 478.61688891989786 947.1064875698354 471.3252222746938Q943.6632005429334 464.0335556294897 937.2106542656298 459.75114823468726Q930.7581079883262 455.4976760249849 921.7882006073212 455.4976760249849L921.7882006073212 455.4976760249849Q912.8472284114162 455.4976760249849 906.4814876894126 459.75114823468726Q900.1446821525091 464.0335556294897 896.7882006809072 471.3252222746938Q893.4606543944052 478.61688891989786 893.4606543944052 487.9918888923031L893.4606543944052 487.9918888923031ZM1025.5497743759793 552.7777683312395L1025.5497743759793 552.7777683312395Q1015.1331077399735 552.7777683312395 1006.5972281354686 548.611101676837Q998.061348530964 544.4444350224348 992.8530152129609 537.3553146729308Q987.6446818949581 530.2661943234268 987.6446818949581 521.3252221275218L987.6446818949581 521.3252221275218Q987.6446818949581 506.94443513281374 999.3055614902646 498.40855552830897Q1010.9664410855711 489.8726759238042 1029.7164410303817 487.15276852440263L1029.7164410303817 487.15276852440263L1060.7638946426991 482.7835555743002L1060.7638946426991 476.7361018883968Q1060.7638946426991 466.7245278437912 1055.034727992896 461.11110193438805Q1049.3055613430924 455.4976760249849 1036.3715336033856 455.4976760249849L1036.3715336033856 455.4976760249849Q1027.2280151117802 455.4976760249849 1021.383107721577 459.23031490288696Q1015.5382003313737 462.9918889658891 1013.2523207084724 468.80786117099234L1013.2523207084724 468.80786117099234Q1012.0081077491717 471.9328611617941 1008.8831077583699 471.9328611617941L1008.8831077583699 471.9328611617941L999.5081077859647 471.9328611617941Q997.2222281630635 471.9328611617941 996.0648207590627 470.60184264719334Q994.9363485401622 469.2418889474926 994.9363485401622 467.3611019159915L994.9363485401622 467.3611019159915Q994.9363485401622 464.2361019251898 997.3090337183635 459.66434267938723Q999.7106540816648 455.06364824848464 1004.7164411039677 450.6944352983822Q1009.7222281262705 446.32522234827974 1017.5347281032748 443.28702791277806Q1025.3472280802794 440.2777686623764 1036.6030150841857 440.2777686623764L1036.6030150841857 440.2777686623764Q1049.1030150473925 440.2777686623764 1057.6388946518973 443.51850939357814Q1066.174774256402 446.73031493967994 1071.064820538305 452.141194553383Q1075.9548668202074 457.5810093521861 1078.1539408878089 464.4386482208899Q1080.35301495541 471.3252222746938 1080.35301495541 478.41434262419773L1080.35301495541 478.41434262419773L1080.35301495541 545.8911942774356Q1080.35301495541 547.9745276046367 1078.993061255709 549.3344813043375Q1077.6331075560083 550.6944350040383 1075.549774228807 550.6944350040383L1075.549774228807 550.6944350040383L1065.9722279607022 550.6944350040383Q1063.6863483378006 550.6944350040383 1062.4132001934 549.3344813043375Q1061.1689872340994 547.9745276046367 1061.1689872340994 545.8911942774356L1061.1689872340994 545.8911942774356L1061.1689872340994 536.9502220815306Q1058.4780150197976 540.6828609594327 1053.8773205888951 544.3286942820347Q1049.3055613430924 547.9745276046367 1042.418987289289 550.3761479679381Q1035.561348420585 552.7777683312395 1025.5497743759793 552.7777683312395ZM1029.9189873260816 537.1527683772307L1029.9189873260816 537.1527683772307Q1038.4548669305864 537.1527683772307 1045.5439872800907 533.5069350546287Q1052.6331076295946 529.8611017320266 1056.6840335435968 522.1643424954223Q1060.7638946426991 514.438648073718 1060.7638946426991 502.7777684784114L1060.7638946426991 502.7777684784114L1060.7638946426991 496.93286108820814L1036.6030150841857 500.4918888555101Q1021.7882003129772 502.5752221827113 1014.293987372073 507.46526846461404Q1006.7997744311688 512.3553147465168 1006.7997744311688 519.849527687421L1006.7997744311688 519.849527687421Q1006.7997744311688 525.6944350776242 1010.2430614580707 529.5428146959264Q1013.6863484849727 533.3911943142285 1018.9814873582756 535.2719813457296Q1024.3055614166788 537.1527683772307 1029.9189873260816 537.1527683772307ZM1167.0138943299585 550.6944350040383L1152.6331073352508 550.6944350040383Q1140.9722277399442 550.6944350040383 1133.68056109474 546.2094813135358Q1126.3888944495357 541.7245276230333 1123.061348163034 533.5069350546287Q1119.704866691432 525.2893424862241 1119.704866691432 514.0335554823178L1119.704866691432 514.0335554823178L1119.704866691432 459.0277686071869L1103.4722278503232 459.0277686071869Q1101.388894523122 459.0277686071869 1100.0289408234212 457.6678149074861Q1098.6689871237204 456.3078612077853 1098.6689871237204 454.22452788058416L1098.6689871237204 454.22452788058416L1098.6689871237204 447.1643427161802Q1098.6689871237204 445.08100938897906 1100.0289408234212 443.7210556892783Q1101.388894523122 442.36110198957755 1103.4722278503232 442.36110198957755L1103.4722278503232 442.36110198957755L1119.704866691432 442.36110198957755L1119.704866691432 407.581009499358Q1119.704866691432 405.49767617215684 1121.0648203911328 404.13772247245606Q1122.4247740908336 402.77776877275534 1124.5081074180348 402.77776877275534L1124.5081074180348 402.77776877275534L1134.28819998184 402.77776877275534Q1136.3715333090413 402.77776877275534 1137.731487008742 404.13772247245606Q1139.0914407084429 405.49767617215684 1139.0914407084429 407.581009499358L1139.0914407084429 407.581009499358L1139.0914407084429 442.36110198957755L1164.9305610027573 442.36110198957755Q1167.2164406256588 442.36110198957755 1168.4606535849593 443.7210556892783Q1169.7048665442603 445.08100938897906 1169.7048665442603 447.1643427161802L1169.7048665442603 447.1643427161802L1169.7048665442603 454.22452788058416Q1169.7048665442603 456.3078612077853 1168.4606535849593 457.6678149074861Q1167.2164406256588 459.0277686071869 1164.9305610027573 459.0277686071869L1164.9305610027573 459.0277686071869L1139.0914407084429 459.0277686071869L1139.0914407084429 512.5578610422169Q1139.0914407084429 522.3668887911224 1142.418986994945 527.9803147005255Q1145.7465332814468 533.6226757950287 1154.3113480710517 533.6226757950287L1154.3113480710517 533.6226757950287L1167.0138943299585 533.6226757950287Q1169.0972276571597 533.6226757950287 1170.4571813568605 534.9536943096294Q1171.7881998714615 536.3136480093302 1171.7881998714615 538.3969813365313L1171.7881998714615 538.3969813365313L1171.7881998714615 545.8911942774356Q1171.7881998714615 547.9745276046367 1170.4571813568605 549.3344813043375Q1169.0972276571597 550.6944350040383 1167.0138943299585 550.6944350040383L1167.0138943299585 550.6944350040383ZM1207.2048664338813 550.6944350040383L1196.7881997978752 550.6944350040383Q1194.704866470674 550.6944350040383 1193.3738479560734 549.3344813043375Q1192.0138942563726 547.9745276046367 1192.0138942563726 545.8911942774356L1192.0138942563726 545.8911942774356L1192.0138942563726 407.581009499358Q1192.0138942563726 405.49767617215684 1193.3738479560734 404.13772247245606Q1194.704866470674 402.77776877275534 1196.7881997978752 402.77776877275534L1196.7881997978752 402.77776877275534L1207.2048664338813 402.77776877275534Q1209.5196812418826 402.77776877275534 1210.7638942011831 404.13772247245606Q1212.0081071604836 405.49767617215684 1212.0081071604836 407.581009499358L1212.0081071604836 407.581009499358L1212.0081071604836 456.10531491208525Q1217.621533069887 449.01619456258123 1225.7523200829914 444.6469816124788Q1233.883107096096 440.2777686623764 1246.3831070593033 440.2777686623764L1246.3831070593033 440.2777686623764Q1259.9247736861107 440.2777686623764 1269.415514398916 446.2094816078797Q1278.8773199266216 452.141194553383 1283.767366208524 462.6736019297889Q1288.6863476755266 473.2060093061948 1288.6863476755266 487.15276852440263L1288.6863476755266 487.15276852440263L1288.6863476755266 545.8911942774356Q1288.6863476755266 547.9745276046367 1287.4131995311263 549.3344813043375Q1286.1689865718254 550.6944350040383 1283.8831069489243 550.6944350040383L1283.8831069489243 550.6944350040383L1273.4664403129182 550.6944350040383Q1271.3831069857174 550.6944350040383 1270.0231532860166 549.3344813043375Q1268.6631995863158 547.9745276046367 1268.6631995863158 545.8911942774356L1268.6631995863158 545.8911942774356L1268.6631995863158 488.19443518800324Q1268.6631995863158 473.61110189759506 1261.6030144219117 465.39350932919046Q1254.5138940724078 457.1469815756858 1240.7696811499 457.1469815756858L1240.7696811499 457.1469815756858Q1227.8356534101927 457.1469815756858 1219.9363478778882 465.39350932919046Q1212.0081071604836 473.61110189759506 1212.0081071604836 488.19443518800324L1212.0081071604836 488.19443518800324L1212.0081071604836 545.8911942774356Q1212.0081071604836 547.9745276046367 1210.7638942011831 549.3344813043375Q1209.5196812418826 550.6944350040383 1207.2048664338813 550.6944350040383L1207.2048664338813 550.6944350040383ZM1362.008106718968 552.7777683312395L1362.008106718968 552.7777683312395Q1340.335653079056 552.7777683312395 1327.6331068201484 539.554388740532Q1314.9305605612417 526.3310091498246 1313.6863476019407 503.41434255061176L1313.6863476019407 503.41434255061176Q1313.4548661211406 500.6944351512102 1313.4548661211406 496.41202775640784Q1313.4548661211406 492.15855554670543 1313.6863476019407 489.4386481473039L1313.6863476019407 489.4386481473039Q1314.4965327847412 474.6527685611956 1320.5439864706445 463.5127222976894Q1326.5914401565483 452.37267603418314 1337.1238475329537 446.32522234827974Q1347.62731972426 440.2777686623764 1361.8055604232677 440.2777686623764L1361.8055604232677 440.2777686623764Q1377.6331066729767 440.2777686623764 1388.368060345083 446.9328612353801Q1399.1030140171888 453.6168889934838 1404.716439926592 465.9143426609907Q1410.329865835995 478.1828611433976 1410.329865835995 494.64698146530685L1410.329865835995 494.64698146530685L1410.329865835995 498.20600923260884Q1410.329865835995 500.4918888555101 1408.9988473213944 501.7361018148108Q1407.6388936216936 502.98031477411155 1405.5555602944924 502.98031477411155L1405.5555602944924 502.98031477411155L1333.4780142103518 502.98031477411155Q1333.4780142103518 503.1828610698116 1333.4780142103518 503.81943514201197Q1333.4780142103518 504.4560092142123 1333.4780142103518 504.8611018056125L1333.4780142103518 504.8611018056125Q1333.883106801752 513.3969814101174 1337.2106530882543 520.8043887957215Q1340.538199374756 528.1828609962256 1346.9039400967595 532.7835554271282Q1353.269680818763 537.3553146729308 1361.8055604232677 537.3553146729308L1361.8055604232677 537.3553146729308Q1369.2997733641719 537.3553146729308 1374.305560386475 535.0694350500295Q1379.3113474087777 532.7835554271282 1382.4363473995795 529.9768424724266Q1385.5613473903813 527.141194332625 1386.603014053982 525.4918887819241L1386.603014053982 525.4918887819241Q1388.454865900383 522.9745276782228 1389.4965325639832 522.4536943464225Q1390.5381992275838 521.9328610146222 1392.8530140355851 521.9328610146222L1392.8530140355851 521.9328610146222L1403.0381991907911 521.9328610146222Q1404.918986222292 521.9328610146222 1406.2789399219928 523.0902684186228Q1407.6388936216936 524.2476758226235 1407.4363473259937 526.3310091498246L1407.4363473259937 526.3310091498246Q1407.2048658451931 529.4560091406263 1404.0798658543918 533.9120276460288Q1400.95486586359 538.3969813365313 1395.2256992137868 542.7661942866339Q1389.4965325639832 547.1643424218363 1381.0763936998787 549.9710553765378Q1372.627319650674 552.7777683312395 1362.008106718968 552.7777683312395ZM1333.4780142103518 487.9918888923031L1333.4780142103518 488.59952777940345L1390.5381992275838 488.59952777940345L1390.5381992275838 487.9918888923031Q1390.5381992275838 478.61688891989786 1387.123847385782 471.3252222746938Q1383.68056035888 464.0335556294897 1377.2280140815765 459.75114823468726Q1370.7465326191727 455.4976760249849 1361.8055604232677 455.4976760249849L1361.8055604232677 455.4976760249849Q1352.835653042263 455.4976760249849 1346.4988475053592 459.75114823468726Q1340.1331067833557 464.0335556294897 1336.805560496854 471.3252222746938Q1333.4780142103518 478.61688891989786 1333.4780142103518 487.9918888923031L1333.4780142103518 487.9918888923031ZM1450.3472268293176 550.6944350040383L1440.1331064890119 550.6944350040383Q1438.0497731618107 550.6944350040383 1436.6898194621099 549.3344813043375Q1435.329865762409 547.9745276046367 1435.329865762409 545.8911942774356L1435.329865762409 545.8911942774356L1435.329865762409 447.36688901188035Q1435.329865762409 445.2835556846792 1436.6898194621099 443.80786124457836Q1438.0497731618107 442.36110198957755 1440.1331064890119 442.36110198957755L1440.1331064890119 442.36110198957755L1449.7106527571173 442.36110198957755Q1451.7939860843185 442.36110198957755 1453.269680524419 443.80786124457836Q1454.71643977942 445.2835556846792 1454.71643977942 447.36688901188035L1454.71643977942 447.36688901188035L1454.71643977942 456.53934268858546Q1458.8831064338224 449.4502223390815 1466.1747730790262 445.8911945717795Q1473.4664397242304 442.36110198957755 1483.8831063602365 442.36110198957755L1483.8831063602365 442.36110198957755L1492.013893373341 442.36110198957755Q1494.0972267005418 442.36110198957755 1495.457180400243 443.7210556892783Q1496.7881989148436 445.08100938897906 1496.7881989148436 447.1643427161802L1496.7881989148436 447.1643427161802L1496.7881989148436 455.700222320685Q1496.7881989148436 457.78355564788615 1495.457180400243 459.0277686071869Q1494.0972267005418 460.27198156648757 1492.013893373341 460.27198156648757L1492.013893373341 460.27198156648757L1479.5138934101337 460.27198156648757Q1468.2581064062274 460.27198156648757 1461.8055601289238 466.8402685841912Q1455.3530138516203 473.40855560189493 1455.3530138516203 484.66434260580127L1455.3530138516203 484.66434260580127L1455.3530138516203 545.8911942774356Q1455.3530138516203 547.9745276046367 1453.8773194115197 549.3344813043375Q1452.4305601565188 550.6944350040383 1450.3472268293176 550.6944350040383L1450.3472268293176 550.6944350040383ZM1533.0439858451637 550.6944350040383L1522.0196803220579 550.6944350040383Q1519.7048655140566 550.6944350040383 1518.4606525547556 549.3344813043375Q1517.216439595455 547.9745276046367 1517.216439595455 545.8911942774356L1517.216439595455 545.8911942774356L1517.216439595455 409.8668891222593Q1517.216439595455 407.581009499358 1518.4606525547556 406.2210557996573Q1519.7048655140566 404.8611020999565 1522.0196803220579 404.8611020999565L1522.0196803220579 404.8611020999565L1574.9131986848874 404.8611020999565Q1590.3356523431958 404.8611020999565 1601.7071800875024 409.8668891222593Q1613.0497726467088 414.8726761445621 1619.299772628312 424.76850944876765Q1625.5497726099156 434.6643427529732 1625.5497726099156 449.4502223390815L1625.5497726099156 449.4502223390815Q1625.5497726099156 464.2361019251898 1619.299772628312 474.01619448899527Q1613.0497726467088 483.8252222379008 1601.7071800875024 488.8310092602036Q1590.3356523431958 493.8078610974064 1574.9131986848874 493.8078610974064L1574.9131986848874 493.8078610974064L1538.0497728674668 493.8078610974064L1538.0497728674668 545.8911942774356Q1538.0497728674668 547.9745276046367 1536.689819167766 549.3344813043375Q1535.3298654680652 550.6944350040383 1533.0439858451637 550.6944350040383L1533.0439858451637 550.6944350040383ZM1537.8472265717664 422.3668890854663L1537.8472265717664 476.33100929699657L1573.8715320212868 476.33100929699657Q1589.2939856795952 476.33100929699657 1597.0196801012999 469.44443524319274Q1604.716439337904 462.55786118938886 1604.716439337904 449.4502223390815L1604.716439337904 449.4502223390815Q1604.716439337904 436.5161945993742 1597.2222263969998 429.45600943497027Q1589.7280134560956 422.3668890854663 1573.8715320212868 422.3668890854663L1573.8715320212868 422.3668890854663L1537.8472265717664 422.3668890854663ZM1688.6863464981511 552.7777683312395L1688.6863464981511 552.7777683312395Q1675.3472261670436 552.7777683312395 1666.0590317499386 546.8460553857361Q1656.7997725179334 540.9143424402328 1651.9965317913307 530.2661943234268Q1647.222226249828 519.6469813917208 1647.222226249828 505.90276846921313L1647.222226249828 505.90276846921313L1647.222226249828 447.1643427161802Q1647.222226249828 445.08100938897906 1648.5821799495288 443.7210556892783Q1649.9131984641294 442.36110198957755 1651.9965317913307 442.36110198957755L1651.9965317913307 442.36110198957755L1662.4131984273363 442.36110198957755Q1664.4965317545375 442.36110198957755 1665.8564854542383 443.7210556892783Q1667.216439153939 445.08100938897906 1667.216439153939 447.1643427161802L1667.216439153939 447.1643427161802L1667.216439153939 504.8611018056125Q1667.216439153939 535.90855541793 1694.2997724075544 535.90855541793L1694.2997724075544 535.90855541793Q1707.2048649621615 535.90855541793 1715.0173649391659 527.6620276644253Q1722.8298649161702 519.4444350960207 1722.8298649161702 504.8611018056125L1722.8298649161702 504.8611018056125L1722.8298649161702 447.1643427161802Q1722.8298649161702 445.08100938897906 1724.189818615871 443.7210556892783Q1725.5497723155718 442.36110198957755 1727.633105642773 442.36110198957755L1727.633105642773 442.36110198957755L1738.0497722787786 442.36110198957755Q1740.1331056059803 442.36110198957755 1741.3773185652808 443.7210556892783Q1742.6215315245813 445.08100938897906 1742.6215315245813 447.1643427161802L1742.6215315245813 447.1643427161802L1742.6215315245813 545.8911942774356Q1742.6215315245813 547.9745276046367 1741.3773185652808 549.3344813043375Q1740.1331056059803 550.6944350040383 1738.0497722787786 550.6944350040383L1738.0497722787786 550.6944350040383L1728.2696797149733 550.6944350040383Q1726.1863463877721 550.6944350040383 1724.8263926880713 549.3344813043375Q1723.4664389883706 547.9745276046367 1723.4664389883706 545.8911942774356L1723.4664389883706 545.8911942774356L1723.4664389883706 536.7476757858304Q1717.8530130789673 544.0393424310346 1709.8090316211628 548.4085553811369Q1701.7939853484586 552.7777683312395 1688.6863464981511 552.7777683312395ZM1788.4548647230072 550.6944350040383L1778.674772159202 550.6944350040383Q1776.5914388320002 550.6944350040383 1775.2314851323 549.3344813043375Q1773.871531432599 547.9745276046367 1773.871531432599 545.8911942774356L1773.871531432599 545.8911942774356L1773.871531432599 407.581009499358Q1773.871531432599 405.49767617215684 1775.2314851323 404.13772247245606Q1776.5914388320002 402.77776877275534 1778.674772159202 402.77776877275534L1778.674772159202 402.77776877275534L1788.4548647230072 402.77776877275534Q1790.7696795310085 402.77776877275534 1792.013892490309 404.13772247245606Q1793.2581054496095 405.49767617215684 1793.2581054496095 407.581009499358L1793.2581054496095 407.581009499358L1793.2581054496095 545.8911942774356Q1793.2581054496095 547.9745276046367 1792.013892490309 549.3344813043375Q1790.7696795310085 550.6944350040383 1788.4548647230072 550.6944350040383L1788.4548647230072 550.6944350040383ZM1861.805558951548 552.7777683312395L1861.805558951548 552.7777683312395Q1850.1446793562418 552.7777683312395 1841.811346047437 549.8553146361378Q1833.4780127386325 546.9328609410361 1828.2696794206295 542.7661942866339Q1823.0613461026264 538.5995276322315 1820.4571794436251 534.4328609778291Q1817.8530127846234 530.2661943234268 1817.6215313038233 527.7777684048255L1817.6215313038233 527.7777684048255Q1817.4189850081234 525.4918887819241 1819.0972257439244 524.2476758226235Q1820.7465312946251 522.9745276782228 1822.424772030426 522.9745276782228L1822.424772030426 522.9745276782228L1831.799772002831 522.9745276782228Q1832.8414386664317 522.9745276782228 1833.5648182939321 523.292814714323Q1834.2881979214326 523.6111017504231 1835.5613460658333 525.0578610054239L1835.5613460658333 525.0578610054239Q1838.2523182801351 527.9803147005255 1841.5798645666368 530.9027683956272Q1844.9363460382388 533.8252220907289 1849.8263923201416 535.7060091222298Q1854.7164386020445 537.5578609686308 1862.0081052472483 537.5578609686308L1862.0081052472483 537.5578609686308Q1872.6273181789543 537.5578609686308 1879.5138922327578 533.5069350546287Q1886.371531101462 529.4560091406263 1886.371531101462 521.5277684232219L1886.371531101462 521.5277684232219Q1886.371531101462 516.319435105219 1883.5648181467604 513.1944351144173Q1880.7581051920588 510.0694351236155 1873.5821792872548 507.5810092050141Q1866.377318197351 505.0636481013127 1853.8773182341438 502.37267588701116L1853.8773182341438 502.37267588701116Q1841.3773182709365 499.4502221919095 1834.0856516257327 495.1678147971071Q1826.7939849805284 490.91434258740475 1823.6689849897266 484.9536944568014Q1820.5439849989252 479.02198151129807 1820.5439849989252 471.52776857039385L1820.5439849989252 471.52776857039385Q1820.5439849989252 463.83100933378955 1825.1446794298276 456.62614824388555Q1829.7164386756303 449.4502223390815 1838.5706053162353 444.8495279081789Q1847.4247719568402 440.2777686623764 1860.7638922879478 440.2777686623764L1860.7638922879478 440.2777686623764Q1871.5856515153537 440.2777686623764 1879.311345937058 442.9976760617779Q1887.0081051736624 445.6886482760794 1892.0138921959651 449.7685093751817Q1897.0196792182678 453.81943528918396 1899.5081051368693 457.78355564788615Q1901.9965310554708 461.7476760065884 1902.2280125362709 464.4386482208899L1902.2280125362709 464.4386482208899Q1902.4305588319708 466.52198154809105 1900.9548643918702 467.88193524779183Q1899.5081051368693 469.2418889474926 1897.627318105368 469.2418889474926L1897.627318105368 469.2418889474926L1888.8888922051633 469.2418889474926Q1887.4131977650627 469.2418889474926 1886.487271841862 468.60531487529227Q1885.5613459186616 467.9976759881919 1884.7222255507609 467.1585556202914L1884.7222255507609 467.1585556202914Q1882.63889222356 464.4386482208899 1879.832179268858 461.7476760065884Q1876.9965311290566 459.0277686071869 1872.5405126236542 457.2627223160859Q1868.0555589331516 455.4976760249849 1860.7638922879478 455.4976760249849L1860.7638922879478 455.4976760249849Q1850.3472256519417 455.4976760249849 1845.1388923339387 459.86688897508736Q1839.9305590159356 464.2361019251898 1839.9305590159356 470.8911944981935L1839.9305590159356 470.8911944981935Q1839.9305590159356 474.85531485689575 1842.2164386388372 477.9803148476975Q1844.5023182617383 481.1053148384992 1850.9548645390423 483.62267594220066Q1857.4363460014456 486.111101860802 1870.1388922603528 489.0335555559037L1870.1388922603528 489.0335555559037Q1883.8831051828606 491.7245277702052 1891.8113459002652 496.32522220110775Q1899.7106514325696 500.89698144691033 1903.0381977190714 506.94443513281374Q1906.3946791906733 512.9918888187171 1906.3946791906733 520.8911943510216L1906.3946791906733 520.8911943510216Q1906.3946791906733 529.6585554363264 1901.3888921683706 536.9502220815306Q1896.383105146068 544.2418887267347 1886.371531101462 548.495360936437Q1876.3888922419565 552.7777683312395 1861.805558951548 552.7777683312395ZM1973.871530843911 552.7777683312395L1973.871530843911 552.7777683312395Q1952.2280123890987 552.7777683312395 1939.4965309450918 539.554388740532Q1926.7939846861846 526.3310091498246 1925.549771726884 503.41434255061176L1925.549771726884 503.41434255061176Q1925.3472254311841 500.6944351512102 1925.3472254311841 496.41202775640784Q1925.3472254311841 492.15855554670543 1925.549771726884 489.4386481473039L1925.549771726884 489.4386481473039Q1926.3888920947843 474.6527685611956 1932.436345780688 463.5127222976894Q1938.4548642814912 452.37267603418314 1948.987271657897 446.32522234827974Q1959.519679034303 440.2777686623764 1973.668984548211 440.2777686623764L1973.668984548211 440.2777686623764Q1989.4965307979196 440.2777686623764 2000.2314844700259 446.9328612353801Q2010.9664381421317 453.6168889934838 2016.579864051535 465.9143426609907Q2022.222225146038 478.1828611433976 2022.222225146038 494.64698146530685L2022.222225146038 494.64698146530685L2022.222225146038 498.20600923260884Q2022.222225146038 500.4918888555101 2020.8622714463372 501.7361018148108Q2019.5023177466364 502.98031477411155 2017.4189844194357 502.98031477411155L2017.4189844194357 502.98031477411155L1945.3414383352952 502.98031477411155Q1945.3414383352952 503.1828610698116 1945.3414383352952 503.81943514201197Q1945.3414383352952 504.4560092142123 1945.3414383352952 504.8611018056125L1945.3414383352952 504.8611018056125Q1945.7465309266954 513.3969814101174 1949.1030123982973 520.8043887957215Q1952.430558684799 528.1828609962256 1958.7673642217023 532.7835554271282Q1965.1331049437063 537.3553146729308 1973.668984548211 537.3553146729308L1973.668984548211 537.3553146729308Q1981.1631974891152 537.3553146729308 1986.1689845114179 535.0694350500295Q1991.174771533721 532.7835554271282 1994.2997715245224 529.9768424724266Q1997.4247715153242 527.141194332625 1998.4664381789248 525.4918887819241L1998.4664381789248 525.4918887819241Q2000.3472252104257 522.9745276782228 2001.3888918740263 522.4536943464225Q2002.4305585376273 521.9328610146222 2004.7164381605285 521.9328610146222L2004.7164381605285 521.9328610146222L2014.9305585008337 521.9328610146222Q2016.811345532335 521.9328610146222 2018.1423640469357 523.0902684186228Q2019.5023177466364 524.2476758226235 2019.2997714509365 526.3310091498246L2019.2997714509365 526.3310091498246Q2019.0972251552362 529.4560091406263 2015.9722251644348 533.9120276460288Q2012.847225173633 538.3969813365313 2007.1180585238299 542.7661942866339Q2001.3888918740263 547.1643424218363 1992.9398178248216 549.9710553765378Q1984.519678960717 552.7777683312395 1973.871530843911 552.7777683312395ZM1945.3414383352952 487.9918888923031L1945.3414383352952 488.59952777940345L2002.4305585376273 488.59952777940345L2002.4305585376273 487.9918888923031Q2002.4305585376273 478.61688891989786 1998.987271510725 471.3252222746938Q1995.5439844838234 464.0335556294897 1989.0914382065198 459.75114823468726Q1982.6388919292158 455.4976760249849 1973.668984548211 455.4976760249849L1973.668984548211 455.4976760249849Q1964.728012352306 455.4976760249849 1958.362271630302 459.75114823468726Q1951.996530908299 464.0335556294897 1948.6689846217969 471.3252222746938Q1945.3414383352952 478.61688891989786 1945.3414383352952 487.9918888923031L1945.3414383352952 487.9918888923031Z " fill="white" transform="matrix(0.4326922975348301,0,0,0.43269229753482996,0,93.26923227028021)"/></g></svg>